ISO-10303-21;
HEADER;
FILE_DESCRIPTION (( 'STEP AP214' ),
    '1' );
FILE_NAME ('M3-Screw-Bushing.STEP',
    '2026-09-09T17:32:04',
    ( '' ),
    ( '' ),
    'SwSTEP 2.0',
    'SolidWorks 2025',
    '' );
FILE_SCHEMA (( 'AUTOMOTIVE_DESIGN' ));
ENDSEC;

DATA;
#1 = ORIENTED_EDGE ( 'NONE', *, *, #174, .T. ) ;
#2 = CIRCLE ( 'NONE', #164, 1.600000000000000089 ) ;
#3 = FACE_OUTER_BOUND ( 'NONE', #13, .T. ) ;
#4 = CARTESIAN_POINT ( 'NONE',  ( 3.000000000000000444, 3.673940397442060361E-16, 4.000000000000000000 ) ) ;
#5 = CIRCLE ( 'NONE', #114, 3.000000000000000444 ) ;
#6 = PRESENTATION_STYLE_ASSIGNMENT (( #38 ) ) ;
#7 = FILL_AREA_STYLE_COLOUR ( '', #53 ) ;
#8 = AXIS2_PLACEMENT_3D ( 'NONE', #77, #184, #92 ) ;
#9 = LINE ( 'NONE', #98, #147 ) ;
#10 =( LENGTH_UNIT ( ) NAMED_UNIT ( * ) SI_UNIT ( .MILLI., .METRE. ) );
#11 = AXIS2_PLACEMENT_3D ( 'NONE', #93, #185, #155 ) ;
#12 = ORIENTED_EDGE ( 'NONE', *, *, #178, .T. ) ;
#13 = EDGE_LOOP ( 'NONE', ( #88, #153 ) ) ;
#14 = CYLINDRICAL_SURFACE ( 'NONE', #11, 3.000000000000000444 ) ;
#15 = ORIENTED_EDGE ( 'NONE', *, *, #199, .T. ) ;
#16 = CARTESIAN_POINT ( 'NONE',  ( 3.000000000000000444, 3.673940397442060361E-16, 4.000000000000000000 ) ) ;
#17 =( GEOMETRIC_REPRESENTATION_CONTEXT ( 3 ) GLOBAL_UNCERTAINTY_ASSIGNED_CONTEXT ( ( #186 ) ) GLOBAL_UNIT_ASSIGNED_CONTEXT ( ( #37, #68, #21 ) ) REPRESENTATION_CONTEXT ( 'NONE', 'WORKASPACE' ) );
#18 = DIRECTION ( 'NONE',  ( 0.000000000000000000, 0.000000000000000000, 1.000000000000000000 ) ) ;
#19 = VECTOR ( 'NONE', #177, 1000.000000000000000 ) ;
#20 = LINE ( 'NONE', #54, #19 ) ;
#21 =( NAMED_UNIT ( * ) SI_UNIT ( $, .STERADIAN. ) SOLID_ANGLE_UNIT ( ) );
#22 = CARTESIAN_POINT ( 'NONE',  ( 0.000000000000000000, 0.000000000000000000, 4.000000000000000000 ) ) ;
#23 = CARTESIAN_POINT ( 'NONE',  ( -1.600000000000000089, 0.000000000000000000, 4.000000000000000000 ) ) ;
#24 = ADVANCED_FACE ( 'NONE', ( #168 ), #124, .F. ) ;
#25 = DIRECTION ( 'NONE',  ( 0.000000000000000000, 0.000000000000000000, 1.000000000000000000 ) ) ;
#27 = AXIS2_PLACEMENT_3D ( 'NONE', #159, #25, #99 ) ;
#26 = CARTESIAN_POINT ( 'NONE',  ( 0.000000000000000000, 0.000000000000000000, 0.000000000000000000 ) ) ;
#28 = ADVANCED_FACE ( 'NONE', ( #3, #183 ), #126, .F. ) ;
#29 = ORIENTED_EDGE ( 'NONE', *, *, #121, .T. ) ;
#30 = ORIENTED_EDGE ( 'NONE', *, *, #87, .T. ) ;
#31 = DIRECTION ( 'NONE',  ( 1.000000000000000000, 0.000000000000000000, 0.000000000000000000 ) ) ;
#32 = CIRCLE ( 'NONE', #100, 3.000000000000000444 ) ;
#33 = DIRECTION ( 'NONE',  ( 0.000000000000000000, 0.000000000000000000, 1.000000000000000000 ) ) ;
#34 =( NAMED_UNIT ( * ) PLANE_ANGLE_UNIT ( ) SI_UNIT ( $, .RADIAN. ) );
#35 = PRODUCT_DEFINITION_CONTEXT ( 'detailed design', #181, 'design' ) ;
#36 = AXIS2_PLACEMENT_3D ( 'NONE', #22, #83, #96 ) ;
#37 =( LENGTH_UNIT ( ) NAMED_UNIT ( * ) SI_UNIT ( .MILLI., .METRE. ) );
#38 = SURFACE_STYLE_USAGE ( .BOTH. , #190 ) ;
#39 = DIRECTION ( 'NONE',  ( -0.000000000000000000, -0.000000000000000000, -1.000000000000000000 ) ) ;
#40 = DIRECTION ( 'NONE',  ( 0.000000000000000000, 0.000000000000000000, 1.000000000000000000 ) ) ;
#41 = DIRECTION ( 'NONE',  ( 1.000000000000000000, 0.000000000000000000, 0.000000000000000000 ) ) ;
#42 = EDGE_LOOP ( 'NONE', ( #12, #180 ) ) ;
#43 = VERTEX_POINT ( 'NONE', #50 ) ;
#44 = AXIS2_PLACEMENT_3D ( 'NONE', #26, #166, #41 ) ;
#45 = ORIENTED_EDGE ( 'NONE', *, *, #127, .T. ) ;
#46 = AXIS2_PLACEMENT_3D ( 'NONE', #48, #123, #31 ) ;
#47 = CYLINDRICAL_SURFACE ( 'NONE', #117, 1.600000000000000089 ) ;
#48 = CARTESIAN_POINT ( 'NONE',  ( 0.000000000000000000, 0.000000000000000000, 0.000000000000000000 ) ) ;
#49 = CARTESIAN_POINT ( 'NONE',  ( 0.000000000000000000, 0.000000000000000000, 4.000000000000000000 ) ) ;
#50 = CARTESIAN_POINT ( 'NONE',  ( -3.000000000000000444, 0.000000000000000000, 0.000000000000000000 ) ) ;
#51 = CARTESIAN_POINT ( 'NONE',  ( 3.000000000000000444, 3.673940397442060361E-16, 0.000000000000000000 ) ) ;
#52 = ADVANCED_FACE ( 'NONE', ( #171 ), #47, .F. ) ;
#53 = COLOUR_RGB ( '',0.7921568627450980005, 0.8196078431372548767, 0.9333333333333333481 ) ;
#54 = CARTESIAN_POINT ( 'NONE',  ( 1.600000000000000089, 1.959434878635765230E-16, 4.000000000000000000 ) ) ;
#55 = ORIENTED_EDGE ( 'NONE', *, *, #193, .T. ) ;
#56 = AXIS2_PLACEMENT_3D ( 'NONE', #139, #170, #66 ) ;
#57 = EDGE_CURVE ( 'NONE', #195, #106, #32, .T. ) ;
#58 = ORIENTED_EDGE ( 'NONE', *, *, #107, .F. ) ;
#59 = PRODUCT ( 'M3-Screw-Bushing', 'M3-Screw-Bushing', '', ( #119 ) ) ;
#60 = MECHANICAL_DESIGN_GEOMETRIC_PRESENTATION_REPRESENTATION (  '', ( #151 ), #161 ) ;
#61 = ORIENTED_EDGE ( 'NONE', *, *, #178, .F. ) ;
#62 = ORIENTED_EDGE ( 'NONE', *, *, #174, .F. ) ;
#63 = DIRECTION ( 'NONE',  ( -1.000000000000000000, 0.000000000000000000, 0.000000000000000000 ) ) ;
#64 = PRESENTATION_LAYER_ASSIGNMENT (  '', '', ( #151 ) ) ;
#65 = ORIENTED_EDGE ( 'NONE', *, *, #193, .F. ) ;
#66 = DIRECTION ( 'NONE',  ( -1.000000000000000000, 0.000000000000000000, 0.000000000000000000 ) ) ;
#67 = DIRECTION ( 'NONE',  ( 1.000000000000000000, 0.000000000000000000, 0.000000000000000000 ) ) ;
#68 =( NAMED_UNIT ( * ) PLANE_ANGLE_UNIT ( ) SI_UNIT ( $, .RADIAN. ) );
#69 = DIRECTION ( 'NONE',  ( 1.000000000000000000, 0.000000000000000000, 0.000000000000000000 ) ) ;
#70 = EDGE_CURVE ( 'NONE', #43, #138, #125, .T. ) ;
#71 = PRODUCT_DEFINITION_SHAPE ( 'NONE', 'NONE',  #144 ) ;
#72 = ORIENTED_EDGE ( 'NONE', *, *, #127, .F. ) ;
#73 = ORIENTED_EDGE ( 'NONE', *, *, #160, .F. ) ;
#74 = ORIENTED_EDGE ( 'NONE', *, *, #121, .F. ) ;
#75 = APPLICATION_PROTOCOL_DEFINITION ( 'draft international standard', 'automotive_design', 1998, #148 ) ;
#76 = VERTEX_POINT ( 'NONE', #95 ) ;
#77 = CARTESIAN_POINT ( 'NONE',  ( 0.000000000000000000, 0.000000000000000000, 0.000000000000000000 ) ) ;
#78 = ORIENTED_EDGE ( 'NONE', *, *, #87, .F. ) ;
#79 = CYLINDRICAL_SURFACE ( 'NONE', #56, 3.000000000000000444 ) ;
#80 = CARTESIAN_POINT ( 'NONE',  ( 0.000000000000000000, 0.000000000000000000, 0.000000000000000000 ) ) ;
#81 = SURFACE_STYLE_FILL_AREA ( #141 ) ;
#82 = DIRECTION ( 'NONE',  ( -0.000000000000000000, -0.000000000000000000, -1.000000000000000000 ) ) ;
#83 = DIRECTION ( 'NONE',  ( 0.000000000000000000, 0.000000000000000000, 1.000000000000000000 ) ) ;
#84 = CARTESIAN_POINT ( 'NONE',  ( -3.000000000000000444, 0.000000000000000000, 4.000000000000000000 ) ) ;
#85 = ADVANCED_FACE ( 'NONE', ( #135 ), #14, .T. ) ;
#86 = SHAPE_DEFINITION_REPRESENTATION ( #71, #109 ) ;
#87 = EDGE_CURVE ( 'NONE', #116, #120, #2, .T. ) ;
#88 = ORIENTED_EDGE ( 'NONE', *, *, #70, .F. ) ;
#89 = DIRECTION ( 'NONE',  ( 1.000000000000000000, 0.000000000000000000, 0.000000000000000000 ) ) ;
#90 = AXIS2_PLACEMENT_3D ( 'NONE', #80, #111, #173 ) ;
#91 = DIRECTION ( 'NONE',  ( -1.000000000000000000, 0.000000000000000000, 0.000000000000000000 ) ) ;
#92 = DIRECTION ( 'NONE',  ( 1.000000000000000000, 0.000000000000000000, -0.000000000000000000 ) ) ;
#93 = CARTESIAN_POINT ( 'NONE',  ( 0.000000000000000000, 0.000000000000000000, 4.000000000000000000 ) ) ;
#94 = ADVANCED_FACE ( 'NONE', ( #196 ), #79, .T. ) ;
#95 = CARTESIAN_POINT ( 'NONE',  ( -1.600000000000000089, 0.000000000000000000, 0.000000000000000000 ) ) ;
#96 = DIRECTION ( 'NONE',  ( 1.000000000000000000, 0.000000000000000000, -0.000000000000000000 ) ) ;
#97 = CARTESIAN_POINT ( 'NONE',  ( 0.000000000000000000, 0.000000000000000000, 0.000000000000000000 ) ) ;
#98 = CARTESIAN_POINT ( 'NONE',  ( -1.600000000000000089, 0.000000000000000000, 4.000000000000000000 ) ) ;
#99 = DIRECTION ( 'NONE',  ( 1.000000000000000000, 0.000000000000000000, 0.000000000000000000 ) ) ;
#100 = AXIS2_PLACEMENT_3D ( 'NONE', #105, #33, #150 ) ;
#101 = FACE_OUTER_BOUND ( 'NONE', #133, .T. ) ;
#102 = EDGE_LOOP ( 'NONE', ( #30, #45, #61, #73 ) ) ;
#103 = ORIENTED_EDGE ( 'NONE', *, *, #136, .F. ) ;
#104 = VECTOR ( 'NONE', #128, 1000.000000000000000 ) ;
#105 = CARTESIAN_POINT ( 'NONE',  ( 0.000000000000000000, 0.000000000000000000, 4.000000000000000000 ) ) ;
#106 = VERTEX_POINT ( 'NONE', #189 ) ;
#107 = EDGE_CURVE ( 'NONE', #195, #138, #154, .T. ) ;
#108 = EDGE_LOOP ( 'NONE', ( #58, #74, #1, #134 ) ) ;
#109 = ADVANCED_BREP_SHAPE_REPRESENTATION ( 'M3-Screw-Bushing', ( #194, #44 ), #17 ) ;
#110 = VERTEX_POINT ( 'NONE', #129 ) ;
#111 = DIRECTION ( 'NONE',  ( 0.000000000000000000, 0.000000000000000000, 1.000000000000000000 ) ) ;
#112 = CARTESIAN_POINT ( 'NONE',  ( 0.000000000000000000, 0.000000000000000000, 4.000000000000000000 ) ) ;
#113 = DIRECTION ( 'NONE',  ( 0.000000000000000000, 0.000000000000000000, 1.000000000000000000 ) ) ;
#114 = AXIS2_PLACEMENT_3D ( 'NONE', #191, #143, #67 ) ;
#115 = DIRECTION ( 'NONE',  ( 1.000000000000000000, 0.000000000000000000, 0.000000000000000000 ) ) ;
#116 = VERTEX_POINT ( 'NONE', #23 ) ;
#117 = AXIS2_PLACEMENT_3D ( 'NONE', #167, #152, #63 ) ;
#118 = CARTESIAN_POINT ( 'NONE',  ( 0.000000000000000000, 0.000000000000000000, 4.000000000000000000 ) ) ;
#119 = PRODUCT_CONTEXT ( 'NONE', #148, 'mechanical' ) ;
#120 = VERTEX_POINT ( 'NONE', #145 ) ;
#121 = EDGE_CURVE ( 'NONE', #106, #195, #169, .T. ) ;
#122 = CIRCLE ( 'NONE', #90, 1.600000000000000089 ) ;
#123 = DIRECTION ( 'NONE',  ( 0.000000000000000000, 0.000000000000000000, 1.000000000000000000 ) ) ;
#124 = CYLINDRICAL_SURFACE ( 'NONE', #140, 1.600000000000000089 ) ;
#125 = CIRCLE ( 'NONE', #46, 3.000000000000000444 ) ;
#126 = PLANE ( 'NONE',  #8 ) ;
#127 = EDGE_CURVE ( 'NONE', #120, #110, #20, .T. ) ;
#128 = DIRECTION ( 'NONE',  ( -0.000000000000000000, -0.000000000000000000, -1.000000000000000000 ) ) ;
#129 = CARTESIAN_POINT ( 'NONE',  ( 1.600000000000000089, 1.959434878635765230E-16, 0.000000000000000000 ) ) ;
#130 = CIRCLE ( 'NONE', #156, 1.600000000000000089 ) ;
#131 = CIRCLE ( 'NONE', #27, 1.600000000000000089 ) ;
#132 = CLOSED_SHELL ( 'NONE', ( #24, #94, #157, #28, #85, #52 ) ) ;
#133 = EDGE_LOOP ( 'NONE', ( #29, #179 ) ) ;
#134 = ORIENTED_EDGE ( 'NONE', *, *, #70, .T. ) ;
#135 = FACE_OUTER_BOUND ( 'NONE', #108, .T. ) ;
#136 = EDGE_CURVE ( 'NONE', #110, #76, #130, .T. ) ;
#137 = ORIENTED_EDGE ( 'NONE', *, *, #57, .F. ) ;
#138 = VERTEX_POINT ( 'NONE', #51 ) ;
#139 = CARTESIAN_POINT ( 'NONE',  ( 0.000000000000000000, 0.000000000000000000, 4.000000000000000000 ) ) ;
#140 = AXIS2_PLACEMENT_3D ( 'NONE', #118, #165, #91 ) ;
#141 = FILL_AREA_STYLE ('',( #7 ) ) ;
#142 = FACE_BOUND ( 'NONE', #162, .T. ) ;
#143 = DIRECTION ( 'NONE',  ( 0.000000000000000000, 0.000000000000000000, 1.000000000000000000 ) ) ;
#144 = PRODUCT_DEFINITION ( 'UNKNOWN', '', #172, #35 ) ;
#145 = CARTESIAN_POINT ( 'NONE',  ( 1.600000000000000089, 1.959434878635765230E-16, 4.000000000000000000 ) ) ;
#146 = LINE ( 'NONE', #84, #176 ) ;
#147 = VECTOR ( 'NONE', #82, 1000.000000000000000 ) ;
#148 = APPLICATION_CONTEXT ( 'automotive_design' ) ;
#149 = EDGE_LOOP ( 'NONE', ( #137, #198, #15, #62 ) ) ;
#150 = DIRECTION ( 'NONE',  ( 1.000000000000000000, 0.000000000000000000, 0.000000000000000000 ) ) ;
#151 = STYLED_ITEM ( 'NONE', ( #6 ), #194 ) ;
#152 = DIRECTION ( 'NONE',  ( -0.000000000000000000, -0.000000000000000000, -1.000000000000000000 ) ) ;
#153 = ORIENTED_EDGE ( 'NONE', *, *, #199, .F. ) ;
#154 = LINE ( 'NONE', #16, #104 ) ;
#155 = DIRECTION ( 'NONE',  ( -1.000000000000000000, 0.000000000000000000, 0.000000000000000000 ) ) ;
#156 = AXIS2_PLACEMENT_3D ( 'NONE', #97, #113, #69 ) ;
#157 = ADVANCED_FACE ( 'NONE', ( #101, #142 ), #175, .T. ) ;
#158 =( NAMED_UNIT ( * ) SI_UNIT ( $, .STERADIAN. ) SOLID_ANGLE_UNIT ( ) );
#159 = CARTESIAN_POINT ( 'NONE',  ( 0.000000000000000000, 0.000000000000000000, 4.000000000000000000 ) ) ;
#160 = EDGE_CURVE ( 'NONE', #116, #76, #9, .T. ) ;
#161 =( GEOMETRIC_REPRESENTATION_CONTEXT ( 3 ) GLOBAL_UNCERTAINTY_ASSIGNED_CONTEXT ( ( #197 ) ) GLOBAL_UNIT_ASSIGNED_CONTEXT ( ( #10, #34, #158 ) ) REPRESENTATION_CONTEXT ( 'NONE', 'WORKASPACE' ) );
#162 = EDGE_LOOP ( 'NONE', ( #78, #65 ) ) ;
#163 = APPLICATION_PROTOCOL_DEFINITION ( 'draft international standard', 'automotive_design', 1998, #181 ) ;
#164 = AXIS2_PLACEMENT_3D ( 'NONE', #49, #18, #89 ) ;
#165 = DIRECTION ( 'NONE',  ( -0.000000000000000000, -0.000000000000000000, -1.000000000000000000 ) ) ;
#166 = DIRECTION ( 'NONE',  ( 0.000000000000000000, 0.000000000000000000, 1.000000000000000000 ) ) ;
#167 = CARTESIAN_POINT ( 'NONE',  ( 0.000000000000000000, 0.000000000000000000, 4.000000000000000000 ) ) ;
#168 = FACE_OUTER_BOUND ( 'NONE', #102, .T. ) ;
#169 = CIRCLE ( 'NONE', #192, 3.000000000000000444 ) ;
#170 = DIRECTION ( 'NONE',  ( -0.000000000000000000, -0.000000000000000000, -1.000000000000000000 ) ) ;
#171 = FACE_OUTER_BOUND ( 'NONE', #182, .T. ) ;
#172 = PRODUCT_DEFINITION_FORMATION_WITH_SPECIFIED_SOURCE ( 'ANY', '', #59, .NOT_KNOWN. ) ;
#173 = DIRECTION ( 'NONE',  ( 1.000000000000000000, 0.000000000000000000, 0.000000000000000000 ) ) ;
#174 = EDGE_CURVE ( 'NONE', #106, #43, #146, .T. ) ;
#175 = PLANE ( 'NONE',  #36 ) ;
#176 = VECTOR ( 'NONE', #39, 1000.000000000000000 ) ;
#177 = DIRECTION ( 'NONE',  ( -0.000000000000000000, -0.000000000000000000, -1.000000000000000000 ) ) ;
#178 = EDGE_CURVE ( 'NONE', #76, #110, #122, .T. ) ;
#179 = ORIENTED_EDGE ( 'NONE', *, *, #57, .T. ) ;
#180 = ORIENTED_EDGE ( 'NONE', *, *, #136, .T. ) ;
#181 = APPLICATION_CONTEXT ( 'automotive_design' ) ;
#182 = EDGE_LOOP ( 'NONE', ( #72, #55, #188, #103 ) ) ;
#183 = FACE_BOUND ( 'NONE', #42, .T. ) ;
#184 = DIRECTION ( 'NONE',  ( 0.000000000000000000, 0.000000000000000000, 1.000000000000000000 ) ) ;
#185 = DIRECTION ( 'NONE',  ( -0.000000000000000000, -0.000000000000000000, -1.000000000000000000 ) ) ;
#186 = UNCERTAINTY_MEASURE_WITH_UNIT (LENGTH_MEASURE( 1.000000000000000082E-05 ), #37, 'distance_accuracy_value', 'NONE');
#187 = PRODUCT_RELATED_PRODUCT_CATEGORY ( 'part', '', ( #59 ) ) ;
#188 = ORIENTED_EDGE ( 'NONE', *, *, #160, .T. ) ;
#189 = CARTESIAN_POINT ( 'NONE',  ( -3.000000000000000444, 0.000000000000000000, 4.000000000000000000 ) ) ;
#190 = SURFACE_SIDE_STYLE ('',( #81 ) ) ;
#191 = CARTESIAN_POINT ( 'NONE',  ( 0.000000000000000000, 0.000000000000000000, 0.000000000000000000 ) ) ;
#192 = AXIS2_PLACEMENT_3D ( 'NONE', #112, #40, #115 ) ;
#193 = EDGE_CURVE ( 'NONE', #120, #116, #131, .T. ) ;
#194 = MANIFOLD_SOLID_BREP ( 'Boss-Extrude1', #132 ) ;
#195 = VERTEX_POINT ( 'NONE', #4 ) ;
#196 = FACE_OUTER_BOUND ( 'NONE', #149, .T. ) ;
#197 = UNCERTAINTY_MEASURE_WITH_UNIT (LENGTH_MEASURE( 1.000000000000000082E-05 ), #10, 'distance_accuracy_value', 'NONE');
#198 = ORIENTED_EDGE ( 'NONE', *, *, #107, .T. ) ;
#199 = EDGE_CURVE ( 'NONE', #138, #43, #5, .T. ) ;
ENDSEC;
END-ISO-10303-21;
